<?xml version="1.0" standalone="no"?>
<!DOCTYPE svg PUBLIC "-//W3C//DTD SVG 20010904//EN"
 "http://www.w3.org/TR/2001/REC-SVG-20010904/DTD/svg10.dtd">
<svg version="1.0" xmlns="http://www.w3.org/2000/svg"
 width="260.000000pt" height="260.000000pt" viewBox="0 0 260.000000 260.000000"
 preserveAspectRatio="xMidYMid meet">
<metadata>
Created by potrace 1.11, written by Peter Selinger 2001-2013
</metadata>
<g transform="translate(0.000000,260.000000) scale(0.100000,-0.100000)"
fill="#000000" stroke="none">
<path d="M380 2140 c0 -6 -23 -133 -51 -283 -27 -150 -61 -332 -75 -404 -13
-73 -35 -193 -48 -265 -14 -73 -52 -281 -86 -463 -33 -181 -63 -340 -65 -352
l-5 -23 1093 0 1094 0 26 143 c72 395 298 1615 302 1635 l5 22 -1095 0 c-749
0 -1095 -3 -1095 -10z m1696 -226 c51 -24 101 -88 113 -143 35 -163 -130 -300
-282 -233 -52 23 -63 45 -54 119 4 42 31 93 53 100 5 2 9 -13 10 -34 2 -82
103 -101 143 -26 38 72 -58 138 -143 98 -47 -22 -77 -65 -91 -129 -11 -48 -12
-50 -24 -28 -7 12 -15 45 -18 72 -5 41 -1 59 22 106 38 77 95 114 178 114 34
0 74 -7 93 -16z m-404 -89 c70 -24 88 -46 88 -107 0 -94 65 -183 153 -210 20
-6 37 -14 37 -17 0 -11 -189 -81 -204 -75 -20 8 -29 39 -22 70 7 26 -3 30 -35
13 -19 -10 -69 -100 -69 -124 0 -5 18 -20 40 -33 48 -27 110 -80 110 -94 0 -6
-33 -44 -72 -85 -67 -70 -165 -133 -205 -133 -16 0 -16 1 3 50 12 29 28 47 53
60 20 10 51 34 69 53 l33 34 -102 26 -103 26 -160 -67 c-160 -67 -161 -68
-197 -122 -49 -73 -110 -130 -216 -204 -87 -61 -88 -62 -123 -146 -23 -57 -48
-99 -76 -126 -36 -37 -89 -63 -101 -50 -11 10 20 77 48 105 15 16 37 52 48 80
27 66 98 209 123 244 19 27 20 31 4 86 -22 78 -20 117 8 176 26 56 57 87 201
202 55 44 154 132 220 194 127 122 171 154 238 175 58 18 154 17 209 -1z
m-895 -542 c6 -16 -73 -91 -114 -109 -24 -10 -39 -11 -60 -3 l-28 11 30 15
c17 8 49 35 72 60 33 35 47 44 69 41 15 -2 29 -8 31 -15z"/>
</g>
</svg>
