<?xml version="1.0" encoding="utf-8"?>
<!-- Generator: Adobe Illustrator 16.0.0, SVG Export Plug-In . SVG Version: 6.00 Build 0)  -->
<!DOCTYPE svg PUBLIC "-//W3C//DTD SVG 1.1//EN" "http://www.w3.org/Graphics/SVG/1.1/DTD/svg11.dtd">
<svg version="1.1" id="Layer_1" xmlns="http://www.w3.org/2000/svg" xmlns:xlink="http://www.w3.org/1999/xlink" x="0px" y="0px"
	 width="300px" height="48px" viewBox="0 0 300 48" enable-background="new 0 0 300 48" xml:space="preserve">
<path fill="#142C52" d="M215.68,18.18l4.776,0.619c0.512,0.067,1.51,0.674,1.825,1.082l3.9,5.041l0.157,9.338
	c0.009,0.515-0.851,1.903-1.357,1.835l-2.534-0.333l-2.323-0.331l-3.782,0.543l-2.001,0.226l-1.445-0.475
	c-0.489-0.157-1.151-0.538-1.146-1.051l0.031-5.519l1.095-4.132l1.373-6.338C214.356,18.179,215.169,18.113,215.68,18.18"/>
<path fill="#142C52" d="M284.367,19.995h3.485l-1.743-5.25L284.367,19.995z M289.573,25.201l-0.818-2.479h-5.29l-0.819,2.479h-3.821
	l5.123-14.781h4.367l5.102,14.781H289.573z M265.504,23.197c-1.462-1.421-2.193-3.223-2.193-5.407c0-2.183,0.731-3.986,2.193-5.407
	c1.462-1.42,3.251-2.13,5.363-2.13c1.638,0,3.096,0.435,4.367,1.301c1.276,0.868,2.161,2.072,2.668,3.612h-4.284
	c-0.559-1.077-1.454-1.617-2.688-1.617c-1.231,0-2.198,0.386-2.907,1.156c-0.706,0.77-1.059,1.798-1.059,3.085
	s0.353,2.317,1.059,3.086c0.709,0.77,1.657,1.156,2.846,1.156c0.853,0,1.551-0.214,2.088-0.642c0.539-0.427,0.897-0.998,1.083-1.712
	h-4.157v-2.728h8.02v2.728c-0.266,1.345-1.001,2.598-2.205,3.759c-0.574,0.561-1.284,1.015-2.131,1.364
	c-0.847,0.351-1.746,0.524-2.697,0.524C268.755,25.327,266.966,24.617,265.504,23.197z M261.085,10.421v2.729h-5.332v3.17h4.701
	v2.729h-4.701v3.422h5.332v2.729h-8.923v-14.78H261.085z M249.013,10.464v14.739h-3.59v-8.314l-3.421,8.314h-2.668l-3.421-8.314
	v8.314h-3.591V10.464h4.117l4.238,10.161l4.221-10.161H249.013z"/>
<path fill="#142C52" d="M290.638,30.656c-0.045-0.447-0.243-0.815-0.588-1.1c-0.346-0.281-0.755-0.424-1.229-0.424
	s-0.871,0.143-1.194,0.424c-0.324,0.284-0.526,0.652-0.607,1.1H290.638z M288.787,36.492c-1.409,0-2.564-0.455-3.465-1.357
	c-0.899-0.907-1.35-2.11-1.35-3.612c0-1.5,0.447-2.694,1.34-3.583c0.896-0.891,2.054-1.335,3.475-1.335
	c1.418,0,2.597,0.438,3.53,1.315c0.936,0.879,1.402,2.096,1.402,3.655c0,0.334-0.022,0.646-0.068,0.934h-6.65
	c0.057,0.429,0.249,0.777,0.572,1.049c0.324,0.271,0.673,0.406,1.049,0.406c0.375,0,0.654-0.037,0.838-0.112
	c0.187-0.077,0.322-0.151,0.408-0.228c0.087-0.075,0.199-0.196,0.337-0.37h3.204c-0.277,0.969-0.832,1.75-1.664,2.346
	C290.914,36.194,289.929,36.492,288.787,36.492z M274.922,35.144c-0.893-0.902-1.342-2.103-1.342-3.603
	c0-1.502,0.449-2.699,1.342-3.593c0.896-0.897,2.052-1.344,3.474-1.344c1.178,0,2.178,0.293,2.993,0.875
	c0.822,0.583,1.363,1.416,1.631,2.502h-3.205c-0.276-0.577-0.729-0.866-1.356-0.866c-0.632,0-1.098,0.222-1.404,0.667
	s-0.46,1.031-0.46,1.759s0.153,1.313,0.46,1.756c0.307,0.445,0.753,0.668,1.343,0.668c0.37,0,0.658-0.063,0.867-0.191
	c0.206-0.126,0.389-0.352,0.551-0.675h3.205c-0.266,1.04-0.814,1.864-1.645,2.476c-0.83,0.613-1.824,0.918-2.979,0.918
	C276.974,36.492,275.817,36.044,274.922,35.144z M268.732,36.374V26.71h2.961v9.663L268.732,36.374L268.732,36.374z M270.205,26.121
	C264.542,26.121,275.867,26.121,270.205,26.121z M264.646,26.121C258.983,26.121,270.308,26.121,264.646,26.121z M263.173,26.71
	h2.961v11.081c0,1.166-0.297,1.989-0.891,2.468c-0.595,0.478-1.435,0.72-2.521,0.72h-1.159v-2.512h0.709
	c0.602,0,0.9-0.227,0.9-0.676V26.71L263.173,26.71z M251.656,35.107c-0.853-0.924-1.28-2.106-1.28-3.55
	c0-1.442,0.428-2.629,1.28-3.559c0.858-0.931,1.896-1.395,3.126-1.395c1.231,0,2.175,0.457,2.832,1.368V26.71h2.962v9.663h-2.962
	V34.97c-0.716,1.017-1.673,1.523-2.875,1.523C253.539,36.492,252.515,36.031,251.656,35.107z M256.974,33.306
	c0.428-0.415,0.641-1.004,0.641-1.766c0-0.763-0.213-1.348-0.641-1.758c-0.427-0.409-0.917-0.615-1.472-0.615
	c-0.556,0-1.046,0.209-1.471,0.624c-0.429,0.418-0.642,1.004-0.642,1.767s0.213,1.349,0.642,1.758
	c0.425,0.409,0.915,0.615,1.471,0.615C256.057,33.931,256.547,33.722,256.974,33.306z M235.275,26.71v1.418
	c0.611-1.017,1.589-1.523,2.928-1.523c0.715,0,1.354,0.163,1.913,0.485c0.56,0.324,0.995,0.785,1.309,1.385
	c0.357-0.565,0.822-1.018,1.394-1.359c0.569-0.339,1.209-0.511,1.912-0.511c1.178,0,2.114,0.364,2.806,1.092
	c0.692,0.726,1.038,1.737,1.038,3.031v5.646h-2.944v-5.249c0-0.621-0.163-1.104-0.493-1.446c-0.33-0.342-0.783-0.509-1.358-0.509
	c-0.576,0-1.029,0.169-1.357,0.509c-0.332,0.342-0.494,0.825-0.494,1.446v5.249h-2.945v-5.249c0-0.621-0.165-1.104-0.494-1.446
	c-0.329-0.342-0.783-0.509-1.359-0.509c-0.575,0-1.032,0.169-1.358,0.509c-0.329,0.342-0.494,0.825-0.494,1.446v5.249h-2.961V26.71
	H235.275z"/>
<path fill="#FCEE23" d="M205.778,13.144c-0.008,1.51,0.442,4.869,0.743,6.233c0.359,1.623,3.383,0.248,4.289-0.211
	c0.022,3.215,0.15,4.231,0.221,5.433c0.068,1.209,0.084,2.612-0.126,6.734c-0.093,1.726-0.487,3.278-0.475,5.346
	c3.46-0.439,5.825-0.718,7.559-0.866c1.689-0.142,2.823-0.172,3.756-0.115c1.737,0.111,2.829,0.543,5.587,0.458
	c-0.047-0.94-0.256-2.086-0.475-3.471c-0.218-1.379-0.445-3.001-0.537-4.896c-0.084-1.701-0.165-3.388-0.245-5.063
	c-0.062-1.251,0.128-1.102,0.091-2.218c0.527,0.384,1.034,0.681,1.717,0.976c0.248,0.108,0.688,0.281,0.973,0.352
	c0.895,0.212,0.505-0.319,0.715-3.073c0.069-0.94,0.198-1.685,0.142-2.649c-0.969-0.653-1.948-1.311-2.935-1.976
	c-0.996-0.674-2.008-1.356-3.028-2.05c-0.628-0.464-1.524-1.083-2.197-1.373c-0.138,0.84-0.251,1.576-0.822,1.981
	c-1.819,1.29-4.881,0.065-5.158-2.913c-0.427-0.026-2.5,0.662-4.659,1.43C208.674,12.007,206.334,12.898,205.778,13.144
	 M213.024,25.172c0.006,0.467,1.069,4.226,1.27,5.05c0.143,0.587,0.357,1.213,0.437,1.774c-0.916-0.878-1.835-1.763-2.759-2.654
	c0.076,0.549,2.275,6.303,2.37,6.855c0.67-0.076,1.337-0.151,2-0.227c0.021-0.708-0.489-3.376-0.507-4.053
	c0.306,0.283,0.538,0.586,0.793,0.94c0.324,0.444,0.445,0.628,0.828,0.984c0.064-1.515,0.041-2.78,0.105-4.326
	c0.181,0.184,1.326,3.028,1.376,3.349c0.049,0.004,0.1,0.01,0.149,0.017c0.026-0.726,0.23-1.412,0.301-2.07
	c0.13,0.499,0.261,0.995,0.391,1.492c0.316-0.244,0.5-1.767,0.814-2.258c-0.039,1.121,0.067,2.36,0.031,3.432
	c0.507-0.363,1.136-1.045,1.624-1.479c0.325-0.286,0.355-0.402,0.592-0.457c-0.17,0.586-0.342,1.177-0.514,1.771
	c-0.182,0.699-0.365,1.209-0.52,1.91c0.463-0.149,0.921-0.302,1.373-0.448c-0.187,0.346-0.538,0.653-0.732,0.987
	c0.546,0.044,1.815,0.276,2.534,0.332c-0.117-0.24-0.864-0.787-1.101-0.887c0.073-0.31,0.2-0.357,0.378-0.569
	c0.188-0.226,0.233-0.365,0.428-0.589c0.188-0.224,0.769-0.903,0.834-1.175c-0.719,0.31-1.444,0.627-2.172,0.943
	c0.027-0.304,0.75-2.462,1.455-4.57c0.688-2.061,1.365-4.08,1.389-4.38c-1.205,1.518-2.446,3.084-3.721,4.691
	c0.025-1.029,0.264-1.932,0.289-3.009c-0.021,0.027-0.044,0.056-0.064,0.086c-0.052,0.072-0.05,0.063-0.091,0.136
	c-0.289,0.461-0.936,1.732-1.246,1.945c0.049-1.63,0.063-3.201,0.073-4.749c0.012-1.532,0.024-3.048,0.074-4.577
	c-0.145,0.227-0.19,0.677-0.247,0.951c-0.2,1.03-0.403,2.066-0.61,3.112c-0.133,0.65-0.274,1.412-0.42,2.116
	c-0.101,0.53-0.201,1.06-0.305,1.594c-0.084,0.431,0.036,0.29-0.197,0.459c-0.055-0.347-0.624-2.896-0.838-3.121
	c-0.057,0.846-0.115,1.693-0.173,2.545c-0.033,0.397-0.088,0.408-0.109,0.876c-0.316-0.786-0.636-1.572-0.951-2.363
	c-0.297-0.794-0.572-1.602-0.912-2.396c-0.622-1.59-1.24-3.181-1.858-4.772c-0.022,0.478,0.052,0.847,0.077,1.255
	c0.076,1.092,0.263,3.028,0.433,4.891c0.168,1.879,0.327,3.691,0.347,4.488C215.179,28.493,213.516,25.639,213.024,25.172z"/>
<g>
	<path fill="#010101" d="M17.405,21.164h-3.973v10.287h-1.903V21.164H7.54v-1.667h9.866L17.405,21.164L17.405,21.164z"/>
	<path fill="#010101" d="M19.005,31.451V19.498h1.885v11.954H19.005z"/>
	<path fill="#010101" d="M30.655,22.309c-0.112-0.123-0.275-0.255-0.488-0.396c-0.213-0.14-0.463-0.272-0.749-0.396
		c-0.287-0.123-0.6-0.225-0.942-0.303c-0.343-0.078-0.694-0.118-1.052-0.118c-0.797,0-1.384,0.146-1.76,0.438
		c-0.376,0.293-0.564,0.697-0.564,1.212c0,0.292,0.06,0.531,0.178,0.716c0.117,0.186,0.299,0.35,0.547,0.488
		c0.247,0.141,0.555,0.263,0.926,0.37c0.371,0.106,0.802,0.222,1.296,0.346c0.607,0.145,1.153,0.309,1.642,0.488
		c0.488,0.18,0.901,0.398,1.237,0.656c0.337,0.258,0.598,0.575,0.783,0.951c0.186,0.375,0.278,0.834,0.278,1.372
		c0,0.606-0.115,1.128-0.346,1.565c-0.229,0.438-0.543,0.793-0.942,1.069c-0.398,0.274-0.862,0.477-1.389,0.607
		c-0.528,0.128-1.095,0.191-1.701,0.191c-0.909,0-1.788-0.136-2.635-0.41c-0.848-0.277-1.614-0.678-2.298-1.205l0.859-1.616
		c0.145,0.146,0.356,0.309,0.631,0.488c0.276,0.18,0.596,0.346,0.96,0.496c0.364,0.151,0.76,0.28,1.187,0.388
		c0.426,0.106,0.87,0.159,1.33,0.159c0.741,0,1.313-0.128,1.718-0.387c0.404-0.259,0.605-0.64,0.605-1.145
		c0-0.302-0.076-0.556-0.227-0.758c-0.152-0.202-0.368-0.379-0.648-0.529c-0.28-0.152-0.623-0.29-1.027-0.413
		c-0.404-0.123-0.865-0.253-1.381-0.388c-0.595-0.157-1.113-0.322-1.557-0.498c-0.444-0.172-0.811-0.382-1.103-0.63
		c-0.292-0.247-0.513-0.536-0.665-0.867c-0.152-0.331-0.228-0.731-0.228-1.203c0-0.583,0.112-1.103,0.337-1.557
		c0.225-0.455,0.53-0.836,0.917-1.146c0.388-0.308,0.845-0.541,1.373-0.698c0.527-0.157,1.1-0.236,1.717-0.236
		c0.808,0,1.555,0.129,2.239,0.387s1.286,0.578,1.801,0.96L30.655,22.309z"/>
	<path fill="#010101" d="M33.87,31.451V19.514h1.886v6.146l5.623-6.162h2.087l-4.715,5.287l4.983,6.666h-2.104l-4.042-5.506
		l-1.834,1.903v3.603L33.87,31.451L33.87,31.451z"/>
	<path fill="#010101" d="M48.501,19.498h1.65l4.714,11.954h-1.987l-1.263-3.249h-4.614l-1.246,3.249h-2.003L48.501,19.498z
		 M51.245,26.805l-1.919-5.134l-1.987,5.134H51.245z"/>
	<path fill="#010101" d="M58.231,23.033v8.418h-1.885V19.498h1.481l6.835,8.62v-8.604h1.903v11.938h-1.566L58.231,23.033z"/>
	<path fill="#010101" d="M68.536,29.347c0.19,0.135,0.474,0.267,0.85,0.395c0.376,0.132,0.806,0.194,1.288,0.194
		c0.516,0,0.929-0.092,1.238-0.278c0.308-0.186,0.544-0.46,0.707-0.824c0.162-0.363,0.269-0.819,0.319-1.364
		c0.051-0.543,0.076-1.174,0.076-1.894v-6.077h1.902v6.077c0,0.909-0.044,1.737-0.134,2.483c-0.09,0.748-0.28,1.384-0.572,1.911
		c-0.292,0.528-0.719,0.938-1.28,1.23c-0.561,0.291-1.313,0.438-2.256,0.438c-1.01,0-1.875-0.247-2.593-0.741L68.536,29.347z"/>
	<path fill="#010101" d="M85.674,29.783v1.668h-8.2V19.498h8.048v1.667h-6.162v3.4h5.337v1.566h-5.337v3.652H85.674L85.674,29.783z"
		/>
	<path fill="#010101" d="M96.752,31.535c-0.854,0-1.631-0.171-2.332-0.514c-0.701-0.341-1.305-0.795-1.81-1.362
		c-0.505-0.567-0.895-1.215-1.17-1.945c-0.275-0.729-0.412-1.476-0.412-2.238c0-0.797,0.145-1.561,0.438-2.291
		c0.292-0.729,0.692-1.374,1.203-1.936c0.51-0.562,1.117-1.008,1.819-1.338c0.701-0.331,1.468-0.497,2.298-0.497
		c0.853,0,1.63,0.177,2.332,0.531c0.701,0.353,1.302,0.816,1.801,1.388c0.5,0.572,0.887,1.221,1.162,1.945
		c0.275,0.724,0.413,1.462,0.413,2.213c0,0.796-0.143,1.56-0.429,2.289c-0.286,0.731-0.688,1.373-1.204,1.929
		c-0.517,0.555-1.126,0.999-1.827,1.33C98.332,31.369,97.572,31.535,96.752,31.535z M92.947,25.476c0,0.56,0.09,1.104,0.27,1.632
		c0.179,0.527,0.435,0.993,0.766,1.396c0.331,0.405,0.732,0.729,1.204,0.968c0.471,0.241,0.999,0.363,1.582,0.363
		c0.607,0,1.142-0.126,1.609-0.379c0.465-0.253,0.861-0.586,1.186-1.002c0.325-0.414,0.573-0.882,0.741-1.396
		c0.168-0.516,0.252-1.044,0.252-1.582c0-0.574-0.089-1.121-0.269-1.643s-0.436-0.982-0.767-1.38
		c-0.332-0.398-0.729-0.719-1.195-0.96c-0.466-0.242-0.985-0.361-1.558-0.361c-0.605,0-1.144,0.126-1.616,0.379
		c-0.471,0.252-0.87,0.581-1.195,0.984c-0.326,0.405-0.576,0.868-0.75,1.389C93.034,24.405,92.947,24.936,92.947,25.476z"/>
	<path fill="#010101" d="M114.498,31.451v-8.604l-3.552,6.516h-1.044l-3.569-6.516v8.604h-1.885V19.498h2.021l3.957,7.306
		l3.956-7.306h2.021v11.954H114.498z"/>
	<path fill="#010101" d="M124.06,31.535c-0.853,0-1.63-0.171-2.332-0.514c-0.702-0.341-1.305-0.795-1.81-1.362
		c-0.505-0.567-0.895-1.215-1.17-1.945c-0.275-0.729-0.412-1.476-0.412-2.238c0-0.797,0.145-1.561,0.438-2.291
		c0.292-0.729,0.692-1.374,1.204-1.936c0.51-0.562,1.116-1.008,1.818-1.338c0.701-0.331,1.468-0.497,2.298-0.497
		c0.853,0,1.63,0.177,2.332,0.531c0.701,0.353,1.301,0.816,1.801,1.388c0.499,0.572,0.886,1.221,1.161,1.945
		c0.276,0.724,0.413,1.462,0.413,2.213c0,0.796-0.144,1.56-0.43,2.289c-0.286,0.731-0.688,1.373-1.203,1.929
		c-0.518,0.555-1.126,0.999-1.827,1.33C125.64,31.369,124.879,31.535,124.06,31.535z M120.255,25.476c0,0.56,0.091,1.104,0.27,1.632
		c0.179,0.527,0.436,0.993,0.766,1.396c0.33,0.405,0.732,0.729,1.204,0.968c0.471,0.241,0.999,0.363,1.582,0.363
		c0.606,0,1.141-0.126,1.608-0.379c0.465-0.253,0.86-0.586,1.187-1.002c0.324-0.414,0.572-0.882,0.74-1.396
		c0.169-0.516,0.252-1.044,0.252-1.582c0-0.574-0.09-1.121-0.269-1.643s-0.435-0.982-0.766-1.38c-0.332-0.398-0.73-0.719-1.195-0.96
		c-0.466-0.242-0.985-0.361-1.558-0.361c-0.605,0-1.145,0.126-1.616,0.379c-0.472,0.252-0.869,0.581-1.195,0.984
		c-0.326,0.405-0.576,0.868-0.749,1.389C120.342,24.405,120.255,24.936,120.255,25.476z"/>
	<path fill="#010101" d="M140.122,29.97c-1.01,1.043-2.172,1.564-3.485,1.564c-0.797,0-1.538-0.165-2.223-0.496
		c-0.684-0.331-1.279-0.777-1.784-1.339s-0.9-1.21-1.187-1.953c-0.286-0.74-0.429-1.515-0.429-2.322
		c0-0.809,0.144-1.578,0.429-2.308c0.287-0.729,0.682-1.369,1.187-1.918s1.105-0.985,1.802-1.304c0.695-0.32,1.454-0.48,2.272-0.48
		c1.145,0,2.104,0.238,2.879,0.716c0.774,0.477,1.357,1.108,1.751,1.894l-1.448,1.045c-0.326-0.652-0.774-1.141-1.347-1.466
		c-0.572-0.325-1.201-0.488-1.885-0.488c-0.562,0-1.072,0.121-1.532,0.362c-0.46,0.241-0.852,0.562-1.179,0.959
		c-0.326,0.398-0.576,0.861-0.749,1.39c-0.175,0.528-0.262,1.076-0.262,1.649c0,0.606,0.099,1.174,0.295,1.701
		s0.466,0.987,0.808,1.381s0.749,0.704,1.221,0.934c0.471,0.23,0.982,0.346,1.532,0.346c0.606,0,1.187-0.141,1.742-0.421
		c0.556-0.28,1.086-0.725,1.591-1.33v-1.279h-2.508v-1.397h4.091v6.044h-1.583L140.122,29.97L140.122,29.97z"/>
	<path fill="#010101" d="M148.843,29.835c0.628,0,1.15-0.123,1.565-0.37c0.415-0.247,0.749-0.57,1.003-0.968
		c0.251-0.399,0.432-0.854,0.538-1.365c0.105-0.509,0.161-1.034,0.161-1.572v-6.062h1.901v6.062c0,0.819-0.095,1.591-0.285,2.314
		c-0.193,0.723-0.496,1.358-0.91,1.902c-0.416,0.545-0.951,0.975-1.609,1.288c-0.656,0.313-1.445,0.473-2.365,0.473
		c-0.955,0-1.759-0.166-2.416-0.497c-0.658-0.332-1.187-0.775-1.591-1.33c-0.404-0.556-0.696-1.192-0.875-1.912
		c-0.179-0.718-0.269-1.464-0.269-2.238v-6.062h1.885v6.062c0,0.549,0.053,1.079,0.16,1.591c0.108,0.512,0.287,0.966,0.539,1.363
		c0.253,0.398,0.589,0.721,1.011,0.96C147.707,29.715,148.226,29.835,148.843,29.835z"/>
	<path fill="#010101" d="M155.763,25.391c0-0.72,0.127-1.435,0.387-2.146c0.258-0.713,0.637-1.353,1.138-1.919
		c0.5-0.567,1.107-1.024,1.826-1.372c0.719-0.348,1.532-0.522,2.442-0.522c1.087,0,2.018,0.242,2.793,0.724
		c0.775,0.483,1.357,1.111,1.752,1.885l-1.482,0.993c-0.168-0.359-0.371-0.662-0.606-0.909c-0.236-0.246-0.497-0.442-0.775-0.589
		c-0.281-0.146-0.572-0.25-0.876-0.312c-0.302-0.06-0.595-0.092-0.875-0.092c-0.629,0-1.179,0.126-1.65,0.379
		c-0.472,0.252-0.865,0.586-1.187,1.001c-0.319,0.416-0.561,0.882-0.724,1.397c-0.161,0.516-0.244,1.032-0.244,1.547
		c0,0.584,0.095,1.14,0.286,1.668c0.192,0.527,0.458,0.993,0.8,1.397c0.343,0.404,0.749,0.726,1.221,0.967
		c0.472,0.243,0.988,0.362,1.549,0.362c0.293,0,0.592-0.036,0.9-0.109c0.308-0.071,0.607-0.19,0.895-0.354
		c0.285-0.163,0.549-0.368,0.789-0.612c0.241-0.247,0.44-0.546,0.599-0.895l1.564,0.895c-0.19,0.448-0.461,0.843-0.808,1.185
		c-0.349,0.343-0.741,0.631-1.178,0.868c-0.438,0.234-0.901,0.416-1.389,0.539c-0.488,0.124-0.968,0.185-1.439,0.185
		c-0.842,0-1.609-0.18-2.308-0.539c-0.694-0.358-1.295-0.826-1.801-1.405c-0.506-0.578-0.898-1.235-1.178-1.97
		C155.902,26.903,155.763,26.153,155.763,25.391z M161.976,18.251l-1.214-0.37l0.961-1.852h1.768L161.976,18.251z"/>
	<path fill="#010101" d="M173.021,29.835c0.627,0,1.147-0.123,1.563-0.37s0.75-0.57,1.001-0.968c0.253-0.399,0.432-0.854,0.54-1.365
		c0.105-0.509,0.157-1.034,0.157-1.572v-6.062h1.905v6.062c0,0.819-0.097,1.591-0.288,2.314c-0.191,0.723-0.494,1.358-0.909,1.902
		c-0.415,0.545-0.951,0.975-1.605,1.288c-0.658,0.313-1.447,0.473-2.366,0.473c-0.956,0-1.76-0.166-2.417-0.497
		c-0.657-0.332-1.186-0.775-1.593-1.33c-0.402-0.556-0.695-1.192-0.873-1.912c-0.182-0.718-0.271-1.464-0.271-2.238v-6.062h1.886
		v6.062c0,0.549,0.053,1.079,0.159,1.591s0.286,0.966,0.539,1.363c0.254,0.398,0.59,0.721,1.01,0.96
		C171.883,29.715,172.402,29.835,173.021,29.835z"/>
	<path fill="#010101" d="M179.585,29.347c0.19,0.135,0.474,0.267,0.85,0.395c0.377,0.132,0.807,0.194,1.29,0.194
		c0.516,0,0.928-0.092,1.236-0.278c0.309-0.186,0.543-0.46,0.706-0.824c0.163-0.363,0.271-0.819,0.32-1.364
		c0.052-0.543,0.076-1.174,0.076-1.894v-6.077h1.902v6.077c0,0.909-0.045,1.737-0.135,2.483c-0.087,0.748-0.278,1.384-0.572,1.911
		c-0.291,0.528-0.719,0.938-1.279,1.23c-0.562,0.291-1.313,0.438-2.255,0.438c-1.012,0-1.877-0.247-2.593-0.741L179.585,29.347z"/>
	<path fill="#010101" d="M193.508,29.835c0.629,0,1.151-0.123,1.567-0.37c0.413-0.247,0.748-0.57,1-0.968
		c0.254-0.399,0.434-0.854,0.54-1.365c0.105-0.509,0.158-1.034,0.158-1.572v-6.062h1.903v6.062c0,0.819-0.096,1.591-0.287,2.314
		c-0.19,0.723-0.494,1.358-0.908,1.902c-0.416,0.545-0.952,0.975-1.607,1.288s-1.446,0.473-2.367,0.473
		c-0.954,0-1.76-0.166-2.414-0.497c-0.657-0.332-1.188-0.775-1.592-1.33c-0.405-0.556-0.696-1.192-0.877-1.912
		c-0.179-0.718-0.268-1.464-0.268-2.238v-6.062h1.885v6.062c0,0.549,0.054,1.079,0.16,1.591c0.105,0.512,0.286,0.966,0.539,1.363
		c0.251,0.398,0.589,0.721,1.01,0.96C192.372,29.715,192.893,29.835,193.508,29.835z"/>
</g>
</svg>
