<?xml version="1.0" encoding="utf-8"?>
<!-- Generator: Adobe Illustrator 16.0.0, SVG Export Plug-In . SVG Version: 6.00 Build 0)  -->
<!DOCTYPE svg PUBLIC "-//W3C//DTD SVG 1.1//EN" "http://www.w3.org/Graphics/SVG/1.1/DTD/svg11.dtd">
<svg version="1.1" id="Layer_1" xmlns="http://www.w3.org/2000/svg" xmlns:xlink="http://www.w3.org/1999/xlink" x="0px" y="0px"
	 width="320px" height="75px" viewBox="0 0 320 75" enable-background="new 0 0 320 75" xml:space="preserve">
<polygon fill="#0E73A2" points="5.01,64.718 14.707,12.345 78.839,12.345 69.144,64.718 "/>
<path fill="#0E73A2" d="M77.378,13.561l-9.246,49.941H6.471l9.246-49.941H77.378z M80.3,11.13h-2.922H15.717h-2.022l-0.368,1.988
	L4.081,63.061l-0.532,2.873h2.922h61.661h2.023l0.368-1.988l9.246-49.942L80.3,11.13z"/>
<path fill="#3B3A39" d="M313.856,13.561l-9.246,49.941H77.186l9.247-49.941h1.443h225.752H313.856z M316.779,11.13h-2.923h-0.229
	H87.875h-1.443h-2.022l-0.369,1.988l-9.246,49.942l-0.532,2.873h2.922H304.61h2.021l0.369-1.988l9.246-49.942L316.779,11.13z"/>
<path fill="#FFFFFF" d="M55.505,23.024c0.022-0.288-0.192-0.722-0.434-0.882c-1.787-1.186-3.756-1.792-5.918-1.626
	c-3.441,0.266-6.079,2.07-8.442,4.414c-1.674,1.66-3.315,3.362-5.091,4.909c-2.163,1.885-4.473,3.602-6.679,5.438
	c-3.109,2.59-3.827,5.624-2.345,9.364c0.143,0.36,0.101,0.954-0.11,1.269c-1.819,2.715-3.204,5.639-4.364,8.682
	c-0.167,0.437-0.37,0.979-0.727,1.206c-1.443,0.928-1.613,2.533-2.206,3.946c2.269-0.51,3.878-1.822,4.852-3.872
	c0.572-1.201,1.081-2.438,1.542-3.688c0.267-0.724,0.718-1.158,1.375-1.541c3.645-2.127,6.925-4.651,8.958-8.494
	c0.141-0.267,0.471-0.487,0.764-0.61c2.961-1.245,5.932-2.468,8.903-3.689c0.216-0.089,0.478-0.208,0.682-0.161
	c2.015,0.468,4.021,0.969,6.239,1.511c-1.34,1.188-2.194,2.619-3.906,2.993c-0.179,0.039-0.409,0.178-0.478,0.332
	c-0.38,0.844-0.717,1.705-1.136,2.721c2.165-0.396,3.857-1.21,5.271-2.579c0.933-0.904,1.847-1.828,2.76-2.753
	c1.092-1.108,1.019-1.874-0.262-2.725c-1.16-0.771-2.328-1.528-3.463-2.273c1.194-3.624,1.588-4.113,3.565-4.412
	c-0.149,0.41-0.318,0.777-0.417,1.161c-0.28,1.1,0.632,2.129,1.674,1.765c1.819-0.639,3.584-1.436,5.573-2.248
	c-0.38-0.108-0.509-0.146-0.639-0.182C57.199,29.93,55.199,27.026,55.505,23.024"/>
<path fill="#FFFFFF" d="M60.004,18.274c-3.533,1.602-4.877,6.304-2.529,9.206c-0.041-1.612,0.227-3.055,1.223-4.276
	c1.236-1.519,3.189-2.119,4.759-1.449c1.18,0.502,1.791,1.751,1.438,2.941c-0.34,1.147-1.513,1.884-2.709,1.703
	c-1.458-0.22-2.201-1.521-1.823-3.584c-1.8,1.408-2.148,3.073-1.975,4.972c0.082,0.886,0.509,1.416,1.275,1.811
	c2.611,1.341,5.836,0.712,7.734-1.547c1.859-2.215,1.955-5.486,0.228-7.795C65.854,17.887,62.677,17.063,60.004,18.274"/>
<path fill="#FFFFFF" d="M23.292,40.237c0.696-0.672,1.455-1.28,2.147-1.956c0.217-0.213,0.311-0.553,0.458-0.829
	c-1.33-0.742-2.301-0.508-3.227,0.812c-0.788,1.126-1.67,2.063-3.299,2.255C20.869,41.406,22.255,41.24,23.292,40.237"/>
<path fill="#3B3A39" d="M101.869,30.167c-2.459,0-4.679,0.956-6.386,2.731h-0.068h-0.034l0.375-2.082h-5.327l-4.678,25.268h5.668
	l1.469-8.024c1.331,1.741,3.142,2.356,5.258,2.356c6.42,0,11.269-6.044,11.269-12.191C109.415,33.479,106.854,30.167,101.869,30.167
	 M97.941,45.124c-2.323,0-3.927-1.572-3.927-3.927c0-3.006,2.698-5.737,5.738-5.737c2.356,0,3.926,1.604,3.926,3.96
	C103.678,42.427,100.946,45.124,97.941,45.124z"/>
<path fill="#3B3A39" d="M119.216,32.83h-0.069l0.376-2.014h-5.327l-3.517,18.952h5.668c0.649-3.484,1.297-6.934,1.947-10.416
	c0.545-2.868,2.493-3.414,5.088-3.483l1.058-5.702C122.153,30.167,120.514,30.953,119.216,32.83"/>
<path fill="#3B3A39" d="M136.051,30.202c-5.839,0-10.995,4.335-12.054,10.072c-0.102,0.614-0.205,1.229-0.205,1.879
	c0,5.087,3.518,8.194,8.537,8.194c5.84,0,11.03-4.337,12.088-10.073c0.103-0.614,0.171-1.229,0.171-1.878
	C144.588,33.308,141.071,30.202,136.051,30.202 M133.32,45.056c-2.22,0-3.756-1.639-3.756-3.825c0-2.938,2.526-5.736,5.497-5.736
	c2.22,0,3.756,1.639,3.756,3.825C138.817,42.255,136.291,45.056,133.32,45.056z"/>
<path fill="#3B3A39" d="M171.531,30.167c-2.664,0-4.951,1.331-6.625,3.38c-0.785-2.253-2.492-3.38-4.849-3.38
	c-2.289,0-4.303,0.784-5.703,2.663h-0.068l0.376-2.015h-5.292l-3.518,18.952h5.668l1.879-10.073c0.41-2.254,1.366-4.2,3.961-4.2
	c1.604,0,2.288,0.957,2.288,2.458c0,0.514-0.068,0.991-0.172,1.503l-1.912,10.313h5.667l1.913-10.347
	c0.409-2.186,1.365-3.927,3.858-3.927c1.605,0,2.355,0.82,2.355,2.356c0,0.615-0.102,1.229-0.204,1.844l-1.878,10.073h5.668
	l1.912-10.347c0.239-1.298,0.513-2.664,0.513-3.995s-0.375-2.288-1.195-3.346C175.048,30.645,173.307,30.167,171.531,30.167"/>
<path fill="#3B3A39" d="M191.885,30.202c-5.84,0-10.995,4.335-12.055,10.072c-0.102,0.614-0.205,1.229-0.205,1.879
	c0,5.087,3.518,8.194,8.537,8.194c5.839,0,11.029-4.337,12.088-10.073c0.104-0.614,0.171-1.229,0.171-1.878
	C200.421,33.308,196.903,30.202,191.885,30.202 M189.152,45.056c-2.219,0-3.756-1.639-3.756-3.825c0-2.938,2.526-5.736,5.498-5.736
	c2.219,0,3.756,1.639,3.756,3.825C194.65,42.255,192.124,45.056,189.152,45.056z"/>
<polygon fill="#3B3A39" points="214.218,30.816 211.486,30.816 212.646,24.499 206.979,24.499 205.817,30.816 203.018,30.816 
	202.231,35.119 205.033,35.119 202.301,49.769 207.969,49.769 210.701,35.119 213.433,35.119 "/>
<path fill="#3B3A39" d="M225.179,30.167c-6.18,0-11.985,5.838-11.985,12.019c0,4.781,3.62,8.196,8.366,8.196
	c4.405,0,8.229-2.938,10.448-6.557h-5.804c-1.06,1.127-2.186,1.775-3.757,1.775c-2.117,0-3.79-1.229-3.79-3.448v-0.137h14.205
	c0.41-1.128,0.615-2.356,0.615-3.585C233.478,33.514,230.098,30.167,225.179,30.167 M219.442,38.191
	c0.785-1.98,2.801-3.244,4.883-3.244c2.016,0,3.654,1.162,3.723,3.244H219.442z"/>
<polygon fill="#3B3A39" points="256.151,30.816 249.425,30.816 242.902,37.679 242.834,37.679 245.259,24.499 239.591,24.499 
	234.912,49.769 240.581,49.769 242.253,40.65 242.322,40.65 246.011,49.769 252.43,49.769 247.479,39.148 "/>
<path fill="#3B3A39" d="M264.86,30.167c-3.756,0-7.751,2.356-8.502,6.249c-0.035,0.274-0.069,0.546-0.069,0.819
	c0,4.849,8.161,4.336,8.161,6.83c0,1.195-1.229,1.811-2.287,1.811c-1.025,0-1.844-0.479-1.844-1.605l0.033-0.136h-5.634
	c-0.034,0.239-0.034,0.443-0.034,0.683c0,3.857,3.039,5.601,6.556,5.601c4.337,0,9.05-2.835,9.05-7.581
	c0-5.225-8.195-4.098-8.195-6.659c0-0.956,1.023-1.469,1.877-1.469c0.787,0,1.538,0.24,1.538,1.128c0,0.103-0.034,0.205-0.034,0.308
	h5.566c0.032-0.239,0.032-0.479,0.032-0.717C271.074,31.704,268.207,30.167,264.86,30.167"/>
<polygon fill="#3B3A39" points="284.974,30.816 282.242,30.816 283.403,24.499 277.734,24.499 276.574,30.816 273.774,30.816 
	272.987,35.119 275.789,35.119 273.057,49.769 278.726,49.769 281.457,35.119 284.188,35.119 "/>
<polygon fill="#3B3A39" points="288.594,24.499 287.809,28.8 293.478,28.8 294.263,24.499 "/>
<polygon fill="#3B3A39" points="283.916,49.768 289.584,49.768 293.101,30.815 287.433,30.815 "/>
<polygon fill="#3B3A39" points="293.683,49.768 299.351,49.768 304.028,24.499 298.36,24.499 "/>
</svg>
