<?xml version="1.0" encoding="utf-8"?>
<!-- Generator: Adobe Illustrator 16.0.0, SVG Export Plug-In . SVG Version: 6.00 Build 0)  -->
<!DOCTYPE svg PUBLIC "-//W3C//DTD SVG 1.1//EN" "http://www.w3.org/Graphics/SVG/1.1/DTD/svg11.dtd">
<svg version="1.1" id="Layer_1" xmlns="http://www.w3.org/2000/svg" xmlns:xlink="http://www.w3.org/1999/xlink" x="0px" y="0px"
	 width="247px" height="61px" viewBox="0 0 247 61" enable-background="new 0 0 247 61" xml:space="preserve">
<polygon fill="#0E73A2" points="4.025,51.275 11.503,10.887 60.958,10.887 53.483,51.275 "/>
<path fill="#0E73A2" d="M59.832,11.825l-7.13,38.512H5.152l7.13-38.512H59.832z M62.085,9.95h-2.253h-47.55h-1.56l-0.283,1.533
	l-7.13,38.514l-0.41,2.216h2.253h47.55h1.561l0.284-1.533l7.13-38.513L62.085,9.95z"/>
<path fill="#3B3A39" d="M242.194,11.825l-7.13,38.512H59.684l7.131-38.512h1.113h174.09H242.194z M244.449,9.95h-2.255h-0.176
	H67.927h-1.112h-1.56l-0.284,1.533L57.84,49.997l-0.41,2.216h2.254h175.38h1.559l0.285-1.533l7.13-38.514L244.449,9.95z"/>
<path fill="#FFFFFF" d="M42.965,19.123c0.017-0.222-0.148-0.557-0.335-0.68c-1.377-0.915-2.896-1.382-4.564-1.254
	c-2.653,0.205-4.687,1.596-6.51,3.404c-1.291,1.279-2.556,2.593-3.926,3.786c-1.668,1.454-3.449,2.777-5.151,4.194
	c-2.397,1.997-2.951,4.336-1.808,7.221c0.11,0.277,0.078,0.735-0.085,0.979c-1.403,2.093-2.47,4.348-3.365,6.694
	c-0.128,0.338-0.285,0.755-0.56,0.93c-1.113,0.717-1.244,1.954-1.702,3.044c1.75-0.393,2.99-1.405,3.742-2.985
	c0.441-0.927,0.833-1.881,1.189-2.845c0.206-0.558,0.553-0.893,1.06-1.188c2.811-1.641,5.34-3.586,6.908-6.55
	c0.109-0.206,0.364-0.376,0.59-0.471c2.283-0.96,4.574-1.904,6.865-2.845c0.167-0.069,0.369-0.16,0.526-0.124
	c1.554,0.359,3.101,0.746,4.811,1.165c-1.033,0.917-1.692,2.019-3.012,2.309c-0.138,0.029-0.315,0.137-0.369,0.256
	c-0.292,0.651-0.553,1.315-0.876,2.098c1.669-0.306,2.975-0.933,4.065-1.989c0.72-0.695,1.424-1.408,2.129-2.123
	c0.842-0.854,0.786-1.445-0.203-2.101c-0.895-0.595-1.795-1.179-2.671-1.752c0.921-2.795,1.225-3.172,2.75-3.402
	c-0.114,0.315-0.245,0.598-0.321,0.895c-0.216,0.848,0.487,1.642,1.291,1.361c1.403-0.493,2.764-1.108,4.298-1.734
	c-0.293-0.083-0.393-0.112-0.493-0.14C44.271,24.448,42.729,22.208,42.965,19.123"/>
<path fill="#FFFFFF" d="M46.435,15.459c-2.725,1.235-3.761,4.862-1.95,7.099c-0.032-1.243,0.175-2.355,0.943-3.297
	c0.953-1.171,2.459-1.634,3.67-1.118c0.91,0.387,1.381,1.35,1.109,2.267c-0.262,0.886-1.167,1.454-2.089,1.313
	c-1.125-0.169-1.697-1.172-1.406-2.764c-1.388,1.086-1.656,2.37-1.522,3.835c0.063,0.683,0.393,1.091,0.983,1.396
	c2.013,1.034,4.5,0.549,5.964-1.193c1.434-1.708,1.508-4.231,0.176-6.012C50.946,15.162,48.496,14.526,46.435,15.459"/>
<path fill="#FFFFFF" d="M18.124,32.396c0.537-0.518,1.122-0.986,1.656-1.508c0.167-0.165,0.24-0.427,0.353-0.641
	c-1.026-0.571-1.774-0.391-2.489,0.627c-0.607,0.869-1.288,1.591-2.544,1.739C16.255,33.298,17.324,33.17,18.124,32.396"/>
<path fill="#3B3A39" d="M78.719,24.63c-1.896,0-3.608,0.737-4.925,2.107h-0.053h-0.025l0.289-1.605h-4.107l-3.608,19.484h4.371
	l1.133-6.187c1.026,1.342,2.422,1.816,4.055,1.816c4.951,0,8.689-4.66,8.689-9.402C84.538,27.185,82.563,24.63,78.719,24.63
	 M75.689,36.165c-1.791,0-3.027-1.212-3.027-3.028c0-2.318,2.08-4.424,4.425-4.424c1.817,0,3.027,1.236,3.027,3.053
	C80.114,34.086,78.007,36.165,75.689,36.165z"/>
<path fill="#3B3A39" d="M92.096,26.685h-0.054l0.29-1.553h-4.107l-2.712,14.614h4.37c0.501-2.686,1-5.348,1.501-8.033
	c0.42-2.211,1.923-2.632,3.923-2.685l0.817-4.398C94.361,24.63,93.098,25.237,92.096,26.685"/>
<path fill="#3B3A39" d="M105.079,24.659c-4.503,0-8.479,3.343-9.296,7.765c-0.078,0.476-0.158,0.949-0.158,1.45
	c0,3.924,2.713,6.318,6.583,6.318c4.504,0,8.506-3.345,9.322-7.769c0.08-0.473,0.132-0.946,0.132-1.446
	C111.662,27.053,108.95,24.659,105.079,24.659 M102.972,36.112c-1.712,0-2.896-1.264-2.896-2.95c0-2.266,1.948-4.422,4.239-4.422
	c1.712,0,2.896,1.263,2.896,2.95C107.211,33.952,105.263,36.112,102.972,36.112z"/>
<path fill="#3B3A39" d="M132.438,24.63c-2.054,0-3.817,1.027-5.108,2.607c-0.604-1.737-1.922-2.607-3.74-2.607
	c-1.764,0-3.317,0.605-4.396,2.054h-0.052l0.29-1.554h-4.082l-2.713,14.616h4.371l1.449-7.769c0.317-1.739,1.054-3.239,3.054-3.239
	c1.238,0,1.766,0.738,1.766,1.895c0,0.397-0.053,0.766-0.134,1.159l-1.475,7.953h4.37l1.476-7.979
	c0.315-1.687,1.053-3.029,2.975-3.029c1.239,0,1.817,0.632,1.817,1.817c0,0.474-0.079,0.947-0.159,1.422l-1.446,7.769h4.37
	l1.475-7.98c0.185-1,0.396-2.054,0.396-3.081c0-1.026-0.289-1.763-0.922-2.58C135.15,25,133.809,24.63,132.438,24.63"/>
<path fill="#3B3A39" d="M148.135,24.659c-4.504,0-8.478,3.343-9.295,7.765c-0.078,0.476-0.159,0.949-0.159,1.45
	c0,3.924,2.713,6.318,6.584,6.318c4.502,0,8.505-3.345,9.322-7.769c0.08-0.473,0.131-0.946,0.131-1.446
	C154.718,27.053,152.005,24.659,148.135,24.659 M146.027,36.112c-1.71,0-2.896-1.264-2.896-2.95c0-2.266,1.948-4.422,4.24-4.422
	c1.71,0,2.897,1.263,2.897,2.95C150.269,33.952,148.319,36.112,146.027,36.112z"/>
<polygon fill="#3B3A39" points="165.357,25.132 163.252,25.132 164.145,20.261 159.775,20.261 158.878,25.132 156.721,25.132 
	156.113,28.45 158.274,28.45 156.167,39.748 160.539,39.748 162.645,28.45 164.753,28.45 "/>
<path fill="#3B3A39" d="M173.811,24.63c-4.766,0-9.242,4.502-9.242,9.268c0,3.688,2.792,6.321,6.451,6.321
	c3.396,0,6.345-2.266,8.058-5.056H174.6c-0.815,0.868-1.685,1.368-2.895,1.368c-1.634,0-2.924-0.948-2.924-2.658v-0.106h10.953
	c0.317-0.871,0.475-1.816,0.475-2.765C180.211,27.211,177.604,24.63,173.811,24.63 M169.387,30.818
	c0.605-1.527,2.159-2.501,3.765-2.501c1.554,0,2.818,0.896,2.872,2.501H169.387z"/>
<polygon fill="#3B3A39" points="197.693,25.132 192.508,25.132 187.479,30.424 187.425,30.424 189.294,20.261 184.925,20.261 
	181.316,39.748 185.688,39.748 186.977,32.715 187.03,32.715 189.876,39.748 194.826,39.748 191.008,31.557 "/>
<path fill="#3B3A39" d="M204.409,24.63c-2.896,0-5.976,1.817-6.555,4.82c-0.028,0.21-0.054,0.421-0.054,0.631
	c0,3.739,6.293,3.343,6.293,5.268c0,0.921-0.946,1.396-1.762,1.396c-0.79,0-1.424-0.369-1.424-1.237l0.026-0.105h-4.345
	c-0.027,0.185-0.027,0.342-0.027,0.527c0,2.974,2.344,4.318,5.057,4.318c3.344,0,6.98-2.187,6.98-5.846
	c0-4.03-6.321-3.16-6.321-5.136c0-0.737,0.79-1.132,1.448-1.132c0.605,0,1.186,0.185,1.186,0.869c0,0.08-0.026,0.158-0.026,0.237
	h4.293c0.023-0.184,0.023-0.369,0.023-0.553C209.202,25.816,206.991,24.63,204.409,24.63"/>
<polygon fill="#3B3A39" points="219.922,25.132 217.816,25.132 218.711,20.261 214.339,20.261 213.443,25.132 211.284,25.132 
	210.677,28.45 212.838,28.45 210.73,39.748 215.105,39.748 217.211,28.45 219.316,28.45 "/>
<polygon fill="#3B3A39" points="222.714,20.261 222.108,23.577 226.481,23.577 227.086,20.261 "/>
<polygon fill="#3B3A39" points="219.105,39.746 223.476,39.746 226.188,25.13 221.819,25.13 "/>
<polygon fill="#3B3A39" points="226.638,39.746 231.01,39.746 234.615,20.261 230.243,20.261 "/>
</svg>
