<?xml version="1.0" encoding="utf-8"?>
<!-- Generator: Adobe Illustrator 16.0.0, SVG Export Plug-In . SVG Version: 6.00 Build 0)  -->
<!DOCTYPE svg PUBLIC "-//W3C//DTD SVG 1.1//EN" "http://www.w3.org/Graphics/SVG/1.1/DTD/svg11.dtd">
<svg version="1.1" id="Layer_1" xmlns="http://www.w3.org/2000/svg" xmlns:xlink="http://www.w3.org/1999/xlink" x="0px" y="0px"
	 width="65px" height="18px" viewBox="0 0 65 18" enable-background="new 0 0 65 18" xml:space="preserve">
<g>
	<path fill="#3C5A99" d="M33.438,8.839c-0.528,0-0.91,0.173-1.297,0.35v3.997c0.37,0.033,0.584,0.033,0.935,0.033
		c1.269,0,1.442-0.578,1.442-1.391V9.919C34.519,9.321,34.319,8.839,33.438,8.839L33.438,8.839z M25.012,8.622
		c-0.88,0-1.082,0.483-1.082,1.081v0.338h2.162V9.703C26.092,9.104,25.891,8.622,25.012,8.622z M8.687,12.781
		c0,0.473,0.224,0.719,0.717,0.719c0.529,0,0.842-0.172,1.228-0.35v-0.947H9.476C8.928,12.203,8.687,12.305,8.687,12.781z
		 M41.636,8.839c-0.883,0-1.188,0.482-1.188,1.081v2.186c0,0.602,0.305,1.084,1.188,1.084c0.879,0,1.187-0.482,1.187-1.084V9.919
		C42.822,9.321,42.515,8.839,41.636,8.839z M4.366,15.232H1.774V8.958H0.479V6.796h1.295V5.498c0-1.764,0.731-2.813,2.809-2.813
		h1.73v2.163H5.231c-0.809,0-0.862,0.302-0.862,0.866L4.366,6.795h1.958L6.095,8.958H4.366V15.232L4.366,15.232z M13.225,15.248
		h-2.161l-0.093-0.545c-0.987,0.545-1.868,0.635-2.447,0.635c-1.585,0-2.429-1.061-2.429-2.523c0-1.727,0.985-2.344,2.745-2.344
		h1.792v-0.373c0-0.881-0.101-1.139-1.457-1.139H6.959l0.216-2.162h2.422c2.975,0,3.627,0.939,3.627,3.319V15.248L13.225,15.248z
		 M20.571,9.116c-1.344-0.23-1.73-0.28-2.377-0.28c-1.162,0-1.513,0.256-1.513,1.243v1.865c0,0.988,0.351,1.246,1.513,1.246
		c0.647,0,1.033-0.051,2.377-0.283v2.107c-1.177,0.266-1.944,0.334-2.592,0.334c-2.784,0-3.89-1.463-3.89-3.578v-1.514
		c0-2.117,1.106-3.582,3.89-3.582c0.648,0,1.415,0.07,2.592,0.335V9.116L20.571,9.116z M28.684,11.77H23.93v0.174
		c0,0.988,0.351,1.246,1.513,1.246c1.044,0,1.681-0.051,3.024-0.283v2.107c-1.294,0.266-1.969,0.334-3.239,0.334
		c-2.783,0-3.89-1.463-3.89-3.578v-1.73c0-1.851,0.821-3.365,3.674-3.365c2.852,0,3.672,1.498,3.672,3.365V11.77z M37.109,11.811
		c0,2.043-0.583,3.533-4.121,3.533c-1.278,0-2.028-0.111-3.438-0.328V3.334l2.591-0.432v4.086c0.56-0.208,1.285-0.313,1.944-0.313
		c2.593,0,3.022,1.161,3.022,3.028L37.109,11.811L37.109,11.811z M45.415,11.855c0,1.762-0.726,3.473-3.771,3.473
		s-3.787-1.711-3.787-3.473v-1.701c0-1.766,0.741-3.475,3.787-3.475s3.771,1.709,3.771,3.475V11.855z M53.717,11.855
		c0,1.762-0.728,3.473-3.772,3.473c-3.047,0-3.788-1.711-3.788-3.473v-1.701c0-1.766,0.741-3.475,3.788-3.475
		c3.045,0,3.772,1.709,3.772,3.475V11.855z M62.236,15.232h-2.808l-2.377-3.967v3.967H54.46V3.334l2.592-0.432v7.659l2.377-3.764
		h2.808l-2.593,4.108L62.236,15.232z M49.936,8.839c-0.882,0-1.186,0.482-1.186,1.081v2.186c0,0.602,0.304,1.084,1.186,1.084
		c0.879,0,1.189-0.482,1.189-1.084V9.919C51.125,9.321,50.814,8.839,49.936,8.839L49.936,8.839z M63.715,13.752
		c0.438,0,0.785,0.357,0.785,0.801c0,0.451-0.348,0.803-0.787,0.803c-0.437,0-0.794-0.352-0.794-0.803
		c0-0.443,0.357-0.801,0.794-0.801H63.715z M63.713,13.877c-0.353,0-0.64,0.303-0.64,0.676c0,0.381,0.287,0.68,0.642,0.68
		c0.355,0.004,0.641-0.299,0.641-0.676s-0.285-0.68-0.641-0.68H63.713z M63.563,15.018h-0.142v-0.893
		c0.074-0.01,0.146-0.02,0.253-0.02c0.135,0,0.223,0.027,0.277,0.066c0.053,0.039,0.082,0.098,0.082,0.186
		c0,0.117-0.08,0.188-0.174,0.217v0.008c0.077,0.014,0.131,0.084,0.147,0.215c0.021,0.141,0.043,0.191,0.057,0.221h-0.148
		c-0.021-0.029-0.044-0.109-0.061-0.227c-0.021-0.115-0.077-0.156-0.192-0.156h-0.1V15.018L63.563,15.018z M63.563,14.523h0.104
		c0.117,0,0.217-0.041,0.217-0.152c0-0.078-0.057-0.156-0.217-0.156c-0.046,0-0.078,0.002-0.104,0.008V14.523L63.563,14.523z"/>
</g>
</svg>
